<svg version="1.1" xmlns="http://www.w3.org/2000/svg" xmlns:xlink="http://www.w3.org/1999/xlink" x="0px" y="0px"
	 viewBox="0 0 600 250" enable-background="new 0 0 600 250" xml:space="preserve">
<metadata><?xpacket begin="﻿" id="W5M0MpCehiHzreSzNTczkc9d"?>
<x:xmpmeta xmlns:x="adobe:ns:meta/" x:xmptk="Adobe XMP Core 5.6-c143 79.161356, 2017/09/07-01:11:22        ">
   <rdf:RDF xmlns:rdf="http://www.w3.org/1999/02/22-rdf-syntax-ns#">
      <rdf:Description rdf:about=""/>
   </rdf:RDF>
</x:xmpmeta>
<?xpacket end="w"?></metadata>
<g id="Layer_1">
	<rect x="46.3" y="55.3" display="none" fill="none" width="508.4" height="111.7"/>
	<g>
		<path fill="#000000" d="M44.1,159.8v-49.7c0-7.2,2.8-13.8,7.8-18.8s11.5-7.8,18.7-7.8c8.2,0,15.8,3.9,20.9,10.2
			c5-6.3,12.6-10.2,20.8-10.2c7.1,0,13.9,2.9,18.9,7.7c5.1,5,8,11.6,8,18.8v49.8c0,3.3-2.6,5.7-5.7,5.7c-3.1,0-5.7-2.4-5.7-5.7V111
			c0-4.1-1.7-8.1-4.5-11.1s-6.8-4.6-11.1-4.6c-4,0-7.6,1.5-10.4,4.2c-3,3-4.5,6.3-4.7,10.2c0,0.2,0,0.3,0.1,0.4v0.4v49.2
			c0,3.1-2.6,5.7-5.7,5.7c-3.1,0-5.6-2.5-5.6-5.7v-48.7c0-4.1-1.6-8.1-4.4-11.2s-6.6-4.7-10.9-4.7c-4,0-7.6,1.5-10.4,4.1
			c-2.7,2.6-4.6,6.3-4.9,10c0,0.2,0,0.3,0.1,0.4v0.5l-0.2,49.6c-0.1,3.3-2.6,5.7-5.7,5.7C46.7,165.5,44.1,163.1,44.1,159.8z"/>
		<path fill="#000000" d="M162.1,154.4c-7.7-7.5-12.2-18-12.2-29.1s4.5-21.5,12.2-29.2c7.5-7.5,18-12.1,29.1-12.1
			c11.1,0,21.5,4.6,29.1,12.1c7.5,7.5,12.2,17.9,12.2,29c0,3-2.2,5.4-5.5,5.4h-64.7c0.9,7,4.4,13.3,9.5,17.9
			c5.3,4.6,12.1,7.3,19.3,7.3c3.4,0,6.2-0.3,8.3-0.9c1.9-0.5,4.1-1.5,6.8-3c1.1-0.7,2.3-1,3.5-1c3,0,5.5,2.9,5.5,5.9
			c0,2-0.9,3.5-2.7,4.6c-3.3,1.9-6.3,3.1-9.2,3.9c-3.6,0.9-7.6,1.4-12.1,1.4C180.1,166.5,169.6,161.9,162.1,154.4z M221.1,121
			c-0.9-7.4-4.3-13.9-9.7-18.7s-12.5-7.5-20-7.5c-7.7,0-14.6,2.9-19.9,7.7c-5.2,4.7-8.6,11.4-9.4,18.5H221.1z"/>
		<path fill="#000000" d="M244.3,159.8v-49.7c0-7.2,2.8-13.8,7.8-18.8s11.5-7.8,18.7-7.8c8.2,0,15.8,3.9,20.9,10.2
			c5-6.3,12.6-10.2,20.8-10.2c7.1,0,13.9,2.9,18.9,7.7c5.1,5,8,11.6,8,18.8v49.8c0,3.3-2.6,5.7-5.7,5.7c-3.1,0-5.7-2.4-5.7-5.7V111
			c0-4.1-1.7-8.1-4.5-11.1c-2.8-3-6.8-4.6-11.1-4.6c-4,0-7.6,1.5-10.4,4.2c-3,3-4.5,6.3-4.7,10.2c0,0.2,0,0.3,0.1,0.4v0.4v49.2
			c0,3.1-2.6,5.7-5.7,5.7c-3.1,0-5.6-2.5-5.6-5.7v-48.7c0-4.1-1.6-8.1-4.4-11.2s-6.6-4.7-10.9-4.7c-4,0-7.6,1.5-10.4,4.1
			c-2.7,2.6-4.6,6.3-4.9,10c0,0.2,0,0.3,0.1,0.4v0.5l-0.2,49.6c-0.1,3.3-2.6,5.7-5.7,5.7C246.9,165.5,244.3,163.1,244.3,159.8z"/>
		<path fill="#000000" d="M366.1,154.4c-7.7-7.5-12.2-17.9-12.2-29.1V60.1c0-3.3,2.5-5.8,5.7-5.8c3.3,0,5.6,2.4,5.6,5.8v43.7
			c2.1-5.7,6.2-10.6,11.7-14.2c5.4-3.6,11.7-5.6,18.4-5.6c11.2,0,21.6,4.5,29.1,12c7.5,7.5,12,18,12,29.2c0,11.2-4.5,21.6-12,29.1
			c-7.5,7.5-18,12.1-29.1,12.1S373.6,161.9,366.1,154.4z M416.5,146.3c5.5-5.5,8.7-13,8.7-21c0-8.2-3.2-15.7-8.7-21.2
			c-5.5-5.5-12.9-8.7-21.3-8.7c-8.2,0-15.8,3.2-21.3,8.7c-5.5,5.5-8.8,13-8.8,21.2c0,8,3.3,15.5,8.8,21c5.5,5.7,13.1,8.9,21.3,8.9
			C403.6,155.2,411,152,416.5,146.3z"/>
		<path fill="#000000" d="M447.7,65.7c0-3.8,3-6.8,6.8-6.8c3.8,0,6.8,3,6.8,6.8c0,3.7-3,6.8-6.8,6.8
			C450.6,72.5,447.7,69.4,447.7,65.7z M448.7,160.2V89.7c0-3.3,2.6-5.7,5.7-5.7c3.3,0,5.6,2.4,5.6,5.7v70.5c0,3.1-2.5,5.7-5.6,5.7
			C451.3,165.9,448.7,163.4,448.7,160.2z"/>
		<path fill="#000000" d="M513.6,138.7c-7.9,0-14.2-6.4-14.2-14.2c0-7.9,6.4-14.2,14.2-14.2c7.9,0,14.2,6.4,14.2,14.2
			C527.9,132.4,521.5,138.7,513.6,138.7 M513.6,166.5c11.2,0,21.7-4.6,29.2-12.1c7.5-7.5,12-17.9,12-29.1c0-11.2-4.5-21.6-12-29.3
			c-7.5-7.5-18-12.1-29.2-12.1c-11.2,0-21.4,4.4-29.1,12.1c-7.7,7.5-12.2,18.1-12.2,29.3c0,11.2,4.5,21.5,12.2,29.1
			C492.3,162.1,502.5,166.5,513.6,166.5z M513.6,155.2c-8.2,0-15.7-3.2-21.2-8.9c-5.5-5.5-8.8-13-8.8-21c0-8.1,3.3-15.7,8.8-21.2
			s13-8.8,21.2-8.8s15.9,3.3,21.4,8.8c5.4,5.5,8.6,13.1,8.6,21.2c0,8-3.2,15.5-8.6,21C529.5,152,522,155.2,513.6,155.2z"/>
	</g>
</g>
<g id="guides" display="none">
</g>
</svg>
